<mxfile host="app.diagrams.net" agent="Mozilla/5.0 (Windows NT 10.0; Win64; x64) AppleWebKit/537.36 (KHTML, like Gecko) Chrome/134.0.0.0 Safari/537.36 Edg/134.0.0.0" version="26.1.3">
  <diagram name="Page-1" id="GLC1JxmstsYDJkAPja0V">
    <mxGraphModel dx="1008" dy="605" grid="1" gridSize="10" guides="1" tooltips="1" connect="1" arrows="1" fold="1" page="1" pageScale="1" pageWidth="850" pageHeight="1100" background="#ffffff" math="1" shadow="0">
      <root>
        <mxCell id="0" />
        <mxCell id="1" parent="0" />
        <mxCell id="bnr4lBaBkeZCq6oDnODC-38" value="" style="rounded=0;whiteSpace=wrap;html=1;fillColor=#f8cecc;strokeColor=#b85450;" vertex="1" parent="1">
          <mxGeometry x="660" y="80" width="140" height="260" as="geometry" />
        </mxCell>
        <mxCell id="bnr4lBaBkeZCq6oDnODC-37" value="" style="rounded=0;whiteSpace=wrap;html=1;fillColor=#fff2cc;strokeColor=#d6b656;" vertex="1" parent="1">
          <mxGeometry x="40" y="80" width="620" height="260" as="geometry" />
        </mxCell>
        <mxCell id="bnr4lBaBkeZCq6oDnODC-21" style="edgeStyle=orthogonalEdgeStyle;rounded=0;orthogonalLoop=1;jettySize=auto;html=1;exitX=1;exitY=0.25;exitDx=0;exitDy=0;entryX=0;entryY=0.25;entryDx=0;entryDy=0;" edge="1" parent="1" source="bnr4lBaBkeZCq6oDnODC-1" target="bnr4lBaBkeZCq6oDnODC-15">
          <mxGeometry relative="1" as="geometry" />
        </mxCell>
        <mxCell id="bnr4lBaBkeZCq6oDnODC-22" style="edgeStyle=orthogonalEdgeStyle;rounded=0;orthogonalLoop=1;jettySize=auto;html=1;exitX=1;exitY=0.75;exitDx=0;exitDy=0;entryX=0;entryY=0.75;entryDx=0;entryDy=0;" edge="1" parent="1" source="bnr4lBaBkeZCq6oDnODC-1" target="bnr4lBaBkeZCq6oDnODC-15">
          <mxGeometry relative="1" as="geometry" />
        </mxCell>
        <mxCell id="bnr4lBaBkeZCq6oDnODC-1" value="Interpolator" style="rounded=0;whiteSpace=wrap;html=1;" vertex="1" parent="1">
          <mxGeometry x="120" y="120" width="120" height="60" as="geometry" />
        </mxCell>
        <mxCell id="bnr4lBaBkeZCq6oDnODC-6" value="" style="edgeStyle=orthogonalEdgeStyle;rounded=0;orthogonalLoop=1;jettySize=auto;html=1;" edge="1" parent="1" source="bnr4lBaBkeZCq6oDnODC-2" target="bnr4lBaBkeZCq6oDnODC-5">
          <mxGeometry relative="1" as="geometry" />
        </mxCell>
        <mxCell id="bnr4lBaBkeZCq6oDnODC-2" value="TED" style="rounded=0;whiteSpace=wrap;html=1;" vertex="1" parent="1">
          <mxGeometry x="440" y="240" width="120" height="60" as="geometry" />
        </mxCell>
        <mxCell id="bnr4lBaBkeZCq6oDnODC-8" value="" style="edgeStyle=orthogonalEdgeStyle;rounded=0;orthogonalLoop=1;jettySize=auto;html=1;" edge="1" parent="1" source="bnr4lBaBkeZCq6oDnODC-5" target="bnr4lBaBkeZCq6oDnODC-7">
          <mxGeometry relative="1" as="geometry" />
        </mxCell>
        <mxCell id="bnr4lBaBkeZCq6oDnODC-5" value="Loop Filter" style="rounded=0;whiteSpace=wrap;html=1;" vertex="1" parent="1">
          <mxGeometry x="280" y="240" width="120" height="60" as="geometry" />
        </mxCell>
        <mxCell id="bnr4lBaBkeZCq6oDnODC-9" value="" style="edgeStyle=orthogonalEdgeStyle;rounded=0;orthogonalLoop=1;jettySize=auto;html=1;exitX=0.25;exitY=0;exitDx=0;exitDy=0;entryX=0.25;entryY=1;entryDx=0;entryDy=0;" edge="1" parent="1" source="bnr4lBaBkeZCq6oDnODC-7" target="bnr4lBaBkeZCq6oDnODC-1">
          <mxGeometry relative="1" as="geometry" />
        </mxCell>
        <mxCell id="bnr4lBaBkeZCq6oDnODC-7" value="Controller" style="rounded=0;whiteSpace=wrap;html=1;" vertex="1" parent="1">
          <mxGeometry x="120" y="240" width="120" height="60" as="geometry" />
        </mxCell>
        <mxCell id="bnr4lBaBkeZCq6oDnODC-10" value="" style="endArrow=classic;html=1;rounded=0;entryX=0;entryY=0.5;entryDx=0;entryDy=0;" edge="1" parent="1" target="bnr4lBaBkeZCq6oDnODC-1">
          <mxGeometry width="50" height="50" relative="1" as="geometry">
            <mxPoint x="40" y="150" as="sourcePoint" />
            <mxPoint x="420" y="430" as="targetPoint" />
          </mxGeometry>
        </mxCell>
        <mxCell id="bnr4lBaBkeZCq6oDnODC-14" value="" style="endArrow=classic;html=1;rounded=0;entryX=0.75;entryY=1;entryDx=0;entryDy=0;exitX=0.75;exitY=0;exitDx=0;exitDy=0;" edge="1" parent="1" source="bnr4lBaBkeZCq6oDnODC-7" target="bnr4lBaBkeZCq6oDnODC-1">
          <mxGeometry width="50" height="50" relative="1" as="geometry">
            <mxPoint x="480" y="180" as="sourcePoint" />
            <mxPoint x="480.0000000000002" y="240" as="targetPoint" />
            <Array as="points">
              <mxPoint x="210" y="200" />
            </Array>
          </mxGeometry>
        </mxCell>
        <mxCell id="bnr4lBaBkeZCq6oDnODC-19" style="edgeStyle=orthogonalEdgeStyle;rounded=0;orthogonalLoop=1;jettySize=auto;html=1;exitX=1;exitY=0.5;exitDx=0;exitDy=0;" edge="1" parent="1" source="bnr4lBaBkeZCq6oDnODC-15">
          <mxGeometry relative="1" as="geometry">
            <mxPoint x="800" y="150" as="targetPoint" />
          </mxGeometry>
        </mxCell>
        <mxCell id="bnr4lBaBkeZCq6oDnODC-23" value="" style="endArrow=classic;html=1;rounded=0;exitX=1;exitY=0.75;exitDx=0;exitDy=0;entryX=0.25;entryY=0;entryDx=0;entryDy=0;" edge="1" parent="1" source="bnr4lBaBkeZCq6oDnODC-1" target="bnr4lBaBkeZCq6oDnODC-2">
          <mxGeometry width="50" height="50" relative="1" as="geometry">
            <mxPoint x="460" y="250" as="sourcePoint" />
            <mxPoint x="510" y="200" as="targetPoint" />
            <Array as="points">
              <mxPoint x="470" y="165" />
            </Array>
          </mxGeometry>
        </mxCell>
        <mxCell id="bnr4lBaBkeZCq6oDnODC-24" value="" style="endArrow=classic;html=1;rounded=0;entryX=0.75;entryY=0;entryDx=0;entryDy=0;exitX=1;exitY=0.25;exitDx=0;exitDy=0;edgeStyle=elbowEdgeStyle;elbow=vertical;jumpStyle=gap;" edge="1" parent="1" source="bnr4lBaBkeZCq6oDnODC-1" target="bnr4lBaBkeZCq6oDnODC-2">
          <mxGeometry width="50" height="50" relative="1" as="geometry">
            <mxPoint x="420" y="130" as="sourcePoint" />
            <mxPoint x="510" y="200" as="targetPoint" />
            <Array as="points">
              <mxPoint x="450" y="135" />
            </Array>
          </mxGeometry>
        </mxCell>
        <mxCell id="bnr4lBaBkeZCq6oDnODC-25" value="Trigger" style="text;html=1;align=center;verticalAlign=middle;whiteSpace=wrap;rounded=0;" vertex="1" parent="1">
          <mxGeometry x="90" y="200" width="60" height="30" as="geometry" />
        </mxCell>
        <mxCell id="bnr4lBaBkeZCq6oDnODC-26" value="Trigger" style="text;html=1;align=center;verticalAlign=middle;whiteSpace=wrap;rounded=0;" vertex="1" parent="1">
          <mxGeometry x="320" y="105" width="60" height="30" as="geometry" />
        </mxCell>
        <mxCell id="bnr4lBaBkeZCq6oDnODC-28" value="$$e(n)$$" style="text;html=1;align=center;verticalAlign=middle;whiteSpace=wrap;rounded=0;" vertex="1" parent="1">
          <mxGeometry x="400" y="240" width="40" height="30" as="geometry" />
        </mxCell>
        <mxCell id="bnr4lBaBkeZCq6oDnODC-30" value="$$\mu(n)$$" style="text;html=1;align=center;verticalAlign=middle;whiteSpace=wrap;rounded=0;" vertex="1" parent="1">
          <mxGeometry x="210" y="200" width="40" height="30" as="geometry" />
        </mxCell>
        <mxCell id="bnr4lBaBkeZCq6oDnODC-31" value="$$x(nT_1)$$" style="text;html=1;align=center;verticalAlign=middle;whiteSpace=wrap;rounded=0;" vertex="1" parent="1">
          <mxGeometry x="60" y="120" width="40" height="30" as="geometry" />
        </mxCell>
        <mxCell id="bnr4lBaBkeZCq6oDnODC-33" value="$$g(n)$$" style="text;html=1;align=center;verticalAlign=middle;whiteSpace=wrap;rounded=0;" vertex="1" parent="1">
          <mxGeometry x="240" y="240" width="40" height="30" as="geometry" />
        </mxCell>
        <mxCell id="bnr4lBaBkeZCq6oDnODC-34" value="$$y(nT_2+\hat{\tau})$$" style="text;html=1;align=center;verticalAlign=middle;whiteSpace=wrap;rounded=0;" vertex="1" parent="1">
          <mxGeometry x="740" y="120" width="40" height="30" as="geometry" />
        </mxCell>
        <mxCell id="bnr4lBaBkeZCq6oDnODC-36" value="" style="endArrow=none;dashed=1;html=1;dashPattern=1 3;strokeWidth=2;rounded=0;elbow=vertical;" edge="1" parent="1">
          <mxGeometry width="50" height="50" relative="1" as="geometry">
            <mxPoint x="660" y="340" as="sourcePoint" />
            <mxPoint x="660" y="80" as="targetPoint" />
          </mxGeometry>
        </mxCell>
        <mxCell id="bnr4lBaBkeZCq6oDnODC-39" value="$$T_1=\frac{2}{T_s}$$" style="text;html=1;align=center;verticalAlign=middle;whiteSpace=wrap;rounded=0;" vertex="1" parent="1">
          <mxGeometry x="580" y="270" width="60" height="30" as="geometry" />
        </mxCell>
        <mxCell id="bnr4lBaBkeZCq6oDnODC-40" value="$$T_2=\frac{1}{T_s}$$" style="text;html=1;align=center;verticalAlign=middle;whiteSpace=wrap;rounded=0;" vertex="1" parent="1">
          <mxGeometry x="680" y="270" width="60" height="30" as="geometry" />
        </mxCell>
        <mxCell id="bnr4lBaBkeZCq6oDnODC-15" value="FIFO" style="rounded=0;whiteSpace=wrap;html=1;" vertex="1" parent="1">
          <mxGeometry x="600" y="120" width="120" height="60" as="geometry" />
        </mxCell>
        <mxCell id="bnr4lBaBkeZCq6oDnODC-42" value="$$x(nT_1+\hat{\tau})$$" style="text;html=1;align=center;verticalAlign=middle;whiteSpace=wrap;rounded=0;" vertex="1" parent="1">
          <mxGeometry x="330" y="135" width="40" height="30" as="geometry" />
        </mxCell>
      </root>
    </mxGraphModel>
  </diagram>
</mxfile>
